Coordinates
version=1
nRows=14
nColumns=24
inDegrees=yes

Units are S.I. units (second, meters, Newtons, ...)
Angles are in degrees.

endheader
time	pelvis_tilt	pelvis_list	pelvis_rotation	pelvis_tx	pelvis_ty	pelvis_tz	hip_flexion_r	hip_adduction_r	hip_rotation_r	knee_angle_r	ankle_angle_r	subtalar_angle_r	mtp_angle_r	hip_flexion_l	hip_adduction_l	hip_rotation_l	knee_angle_l	ankle_angle_l	subtalar_angle_l	mtp_angle_l	lumbar_extension	lumbar_bending	lumbar_rotation
      4.37000000	    -19.36502823	     -1.84342999	     -2.34056648	     -1.32526825	      0.00572248	     -0.25164112	     12.45053044	      8.80668247	      7.96447445	    -10.51692748	     21.82292573	      1.16842695	   -100.72935269	     42.71419764	      0.39524864	      2.06385552	    -51.95590157	     11.88395323	      2.95457260	    -70.75741327	     12.91254312	      1.83378536	      6.23285254
      4.37500000	    -19.25747222	     -1.68779832	     -2.69243781	     -1.31794638	      0.00610653	     -0.25129467	     11.51293262	      8.64945934	      7.98760922	     -9.93983702	     21.56925302	      1.37800559	   -100.70520365	     42.94147534	      0.33195078	      1.83377016	    -50.41723826	     12.37787988	      3.30075795	    -70.83059972	     12.77825988	      1.81622495	      6.55332721
      4.38000000	    -19.21467687	     -1.56820862	     -3.02715619	     -1.31062636	      0.00622446	     -0.25099276	     10.66727456	      8.51894202	      7.96877848	     -9.41087882	     21.40514022	      1.66869364	   -100.70603305	     43.22486379	      0.23812671	      1.64136071	    -48.85066020	     12.85665336	      3.69799261	    -70.84917815	     12.71429367	      1.84292613	      6.77659447
      4.38500000	    -19.13284729	     -1.44567293	     -3.34839072	     -1.30328365	      0.00629480	     -0.25065119	      9.79561656	      8.38223640	      7.89958044	     -8.90997685	     21.24802485	      1.96303201	   -100.72504433	     43.41975281	      0.15126118	      1.46366380	    -47.19103953	     13.25108953	      4.03665055	    -70.87358484	     12.60673765	      1.84441027	      7.02229202
      4.39000000	    -19.03763736	     -1.33182321	     -3.65063467	     -1.29594951	      0.00626541	     -0.25036854	      8.93317339	      8.24543517	      7.76373341	     -8.44882494	     21.11623635	      2.27086048	   -100.76909156	     43.56377072	      0.07582624	      1.32609233	    -45.45698658	     13.58493296	      4.34319159	    -70.90212062	     12.47937180	      1.86008464	      7.25385038
      4.39500000	    -18.98324597	     -1.23347723	     -3.94291251	     -1.28860340	      0.00603679	     -0.25006413	      8.13335285	      8.12285703	      7.62404211	     -8.03274283	     21.04818927	      2.62946067	   -100.82406906	     43.72397295	     -0.02215102	      1.20528917	    -43.67628743	     13.90063594	      4.70808079	    -70.89159358	     12.39682061	      1.88326380	      7.41920746
      4.40000000	    -18.90471211	     -1.12998067	     -4.21828107	     -1.28124786	      0.00573478	     -0.24978345	      7.33077159	      7.98942110	      7.41777987	     -7.65748975	     21.00757013	      2.99961790	   -100.89864197	     43.81207857	     -0.09801782	      1.12569802	    -41.81076335	     14.15743403	      5.04968889	    -70.86338358	     12.28648211	      1.89697392	      7.58886356
      4.40500000	    -18.83301611	     -1.03365676	     -4.47419446	     -1.27389050	      0.00530335	     -0.24951842	      6.55877994	      7.85997661	      7.17719971	     -7.32817572	     21.00469146	      3.38921791	   -100.98880495	     43.87209480	     -0.17094641	      1.08122886	    -39.88252914	     14.38065426	      5.42034343	    -70.80944143	     12.18098210	      1.91157545	      7.73085384
      4.41000000	    -18.75992875	     -0.93661228	     -4.71181459	     -1.26652782	      0.00475801	     -0.24927342	      5.80869683	      7.72592427	      6.90492865	     -7.04564648	     21.04130672	      3.79564612	   -101.09494130	     43.89231110	     -0.23288053	      1.07012615	    -37.88928800	     14.57265488	      5.82421800	    -70.72866505	     12.07188501	      1.92009689	      7.85578916
      4.41500000	    -18.70590704	     -0.84652311	     -4.93385484	     -1.25917839	      0.00407782	     -0.24903787	      5.10174542	      7.59936753	      6.62076728	     -6.80561049	     21.10145885	      4.19759125	   -101.21062464	     43.90013478	     -0.29446997	      1.10429575	    -35.84316124	     14.74316255	      6.27505923	    -70.62535085	     11.97668674	      1.92774232	      7.95998993
      4.42000000	    -18.64038687	     -0.74519468	     -5.14215976	     -1.25182417	      0.00330358	     -0.24880858	      4.40868028	      7.45875633	      6.31959373	     -6.61787176	     21.20522378	      4.60309021	   -101.34178097	     43.85811826	     -0.34115876	      1.16646159	    -33.73810612	     14.89938405	      6.78039695	    -70.49723296	     11.87074206	      1.92053663	      8.05772552
      4.42500000	    -18.57774394	     -0.64348401	     -5.33938683	     -1.24450291	      0.00241913	     -0.24857914	      3.75504011	      7.32178458	      5.99946612	     -6.49664584	     21.34950241	      4.98719835	   -101.50518175	     43.78538914	     -0.37956669	      1.29509267	    -31.58395374	     15.05464864	      7.32916111	    -70.33218900	     11.75714343	      1.90173264	      8.14646172
      4.43000000	    -18.55384483	     -0.52925625	     -5.52156914	     -1.23715803	      0.00139868	     -0.24835587	      3.14429410	      7.16941806	      5.76104095	     -6.38091127	     21.48959842	      5.32696165	   -101.64618852	     43.73626240	     -0.41902395	      1.39826255	    -29.40909541	     15.20639681	      7.98383950	    -70.18645688	     11.68994404	      1.87173094	      8.20555419
      4.43500000	    -18.51586200	     -0.41452622	     -5.66945305	     -1.22983919	      0.00027752	     -0.24816815	      2.56165279	      7.01817184	      5.46833771	     -6.34844265	     21.69579422	      5.64310268	   -101.87046542	     43.64578987	     -0.42946067	      1.59271541	    -27.20211990	     15.36886564	      8.65227816	    -69.96602126	     11.59810555	      1.82567507	      8.22007111
